<svg width="19" height="19" fill="none" xmlns="http://www.w3.org/2000/svg"><g opacity=".8"><path d="M9.69 18.236c5.01 0 9.073-3.954 9.073-8.833 0-4.878-4.062-8.832-9.074-8.832C4.678.57.615 4.525.615 9.403c0 4.879 4.063 8.833 9.074 8.833Z" fill="url('#paint0_linear_56_312')"/><path opacity=".1" d="M4.489 4.423c-1.268 3.072.514 6.668 3.993 8.03 3.479 1.361 7.328-.024 8.596-3.096 1.267-3.072-.514-6.668-3.993-8.03-3.468-1.361-7.317.024-8.596 3.096Z" fill="#fff"/><path opacity=".2" d="M8.183 3.27c-.753 1.84.31 3.992 2.39 4.807 2.081.814 4.388-.012 5.142-1.85.765-1.84-.311-3.992-2.391-4.807-2.08-.814-4.376.012-5.141 1.85Z" fill="#fff"/><path opacity=".5" d="M1.99 4.725a8.912 8.912 0 0 0-.299 2.281c0 4.876 4.065 8.833 9.074 8.833 3.24 0 6.085-1.665 7.688-4.155-1.029 3.77-4.567 6.552-8.764 6.552C4.68 18.224.615 14.279.615 9.403c0-1.722.502-3.328 1.375-4.678Z" fill="#D9D9D9"/><path opacity=".5" d="M16.564 9.404c-.216.372-.526 1.466 0 1.722s1.04-.768 1.04-1.57c-.012-.816-.443-1.165-1.04-.152ZM6.88 10.73c.37.396.382.873.143 1.082-.251.21-.789 0-1.124-.64-.334-.651-.024-1.5.98-.442ZM12.427 3.492c.299.326.873.407.777-.36-.108-.769-1.53-.478-.777.36ZM14.483 14.152c-.095-.21-.466-.117-.526.244-.06.36.861.454.526-.244Z" fill="#D9D9D9"/><path d="M5.266 13.721c.203.14.25.617-.18.326-.442-.291-.131-.535.18-.326ZM3.078 10.114c.299.419-.263 1.291-.586.512-.287-.687.024-1.304.586-.512ZM3.293 7.204c-.131-.07-.311.117-.143.338.191.21.503-.163.143-.338ZM9.032 6.226c-.18-.209-.79.059-.49.326.49.42.896.152.49-.326ZM6.45 4.144c-.12-.105-.252.232-.12.29.132.07.383-.07.12-.29ZM11.674 3.352c.132.059.156.327-.143.21-.3-.116-.132-.338.143-.21ZM13.551 6.588c.192.081.036.291-.24.233-.275-.07-.047-.35.24-.233ZM14.173 12.139c.084.093-.06.291-.216.128-.155-.163.072-.28.216-.128ZM8.912 8.112c.132.152-.036.21-.167.117-.132-.093.036-.269.167-.117ZM17.592 7.25c.12.152-.048.338-.215.14-.156-.186.095-.29.215-.14ZM7.92 11.882s-.024-.035-.06-.082l-.072-.07a.67.67 0 0 0-.095-.07c-.012-.01-.036-.023-.048-.034-.012-.012-.036-.012-.048-.023a.838.838 0 0 1-.096-.035c-.06-.012-.095-.024-.095-.024s.036.024.071.059c.024.011.048.034.084.058.036.011.06.035.096.058.036.023.06.035.095.058.036.012.06.035.084.047.024.011.048.023.06.035.012.023.024.023.024.023ZM7.657 12.336s-.012-.047-.048-.105c-.012-.012-.024-.035-.036-.046-.012-.012-.024-.035-.036-.047-.036-.035-.06-.07-.107-.093a.208.208 0 0 1-.06-.047c-.024-.011-.036-.023-.06-.035a.365.365 0 0 0-.12-.046c-.071-.023-.12-.023-.12-.023s.037.034.097.07c.035.011.06.046.095.07.036.022.072.046.108.08.036.024.072.059.107.082.036.023.06.058.084.082l.06.058c.024-.012.036 0 .036 0ZM16.934 8.158v.105c0 .07.012.151.048.233a.513.513 0 0 0 .204.279s0-.012-.012-.023c0-.012-.012-.012-.012-.024 0-.011-.012-.023-.024-.034-.024-.059-.06-.128-.084-.21-.024-.081-.06-.163-.072-.221a.422.422 0 0 1-.048-.105ZM16.611 8.472s-.012.035-.024.093c0 .058 0 .14.036.21.012.023.012.035.024.058s.024.035.036.046a.51.51 0 0 0 .072.082c.048.035.084.058.084.058s-.012-.035-.048-.081c-.012-.024-.024-.059-.048-.082a.347.347 0 0 0-.048-.093l-.036-.105c-.012-.035-.024-.058-.024-.093-.012-.023-.012-.046-.024-.07v-.023ZM15.774 9.462l.108.023c.036 0 .072.012.108.023.024 0 .036.012.06.012.023 0 .035.012.06.012.023 0 .035.012.059.012.024.011.036.011.06.011a137.852 137.852 0 0 0 .215.07l-.084-.081c-.024-.024-.06-.036-.095-.059a.433.433 0 0 0-.132-.047c-.084-.023-.18-.023-.25-.023-.06.023-.108.047-.108.047ZM16.277 10.334s-.012 0-.024-.011c-.012 0-.024 0-.036-.012h-.048c-.036 0-.072 0-.108.023-.023.012-.047.012-.06.024-.023.011-.035.023-.06.034-.035.024-.07.047-.107.082a.22.22 0 0 0-.072.081c-.035.047-.06.094-.06.094s.037-.024.096-.059l.036-.035c.012-.011.036-.023.048-.034.012-.012.036-.024.048-.035.012-.012.036-.024.048-.035.036-.024.071-.047.107-.059.012-.011.036-.011.048-.023.012 0 .036-.011.048-.011.012-.012.024-.012.036-.012.012 0 .024-.012.036-.012.012.012.024 0 .024 0ZM16.337 10.87s-.036 0-.096.011a.485.485 0 0 0-.191.093c-.024.024-.06.047-.084.082-.024.035-.048.058-.048.093-.024.058-.024.093-.024.093s.024-.035.06-.07c.012-.023.048-.046.06-.07l.036-.034.036-.035a.166.166 0 0 1 .048-.035c.012-.012.024-.024.047-.035.024-.023.06-.035.084-.047.024-.011.048-.035.06-.035 0-.011.012-.011.012-.011ZM16.612 11.137s-.036.024-.084.07a.513.513 0 0 0-.072.082c-.012.011-.024.034-.036.046-.012.023-.024.035-.036.058-.024.035-.036.082-.048.117-.012.023-.012.034-.012.058 0 .023-.012.035-.012.046V11.72s0-.012.012-.023c0-.012.012-.024.012-.035 0-.012 0-.023.012-.035.012-.012.012-.023.024-.047.012-.011.012-.035.024-.046.024-.035.036-.07.06-.105.024-.035.036-.07.06-.105.012-.034.036-.07.048-.093l.048-.093Z" fill="#D9D9D9"/></g><defs><linearGradient id="paint0_linear_56_312" x1="14.291" y1="1.932" x2="5.435" y2="17.086" gradientUnits="userSpaceOnUse"><stop offset="0" stop-color="#F0F0F0"/><stop offset=".893" stop-color="#CBCBCB"/><stop offset="1" stop-color="#C6C6C6"/></linearGradient></defs></svg>