<svg width="41" height="21" fill="none" xmlns="http://www.w3.org/2000/svg"><mask id="mask0_71_2790" style="mask-type:luminance" maskUnits="userSpaceOnUse" x="0" y="0" width="41" height="21"><path d="M30.298 21H10.702C4.79 21 0 16.3 0 10.5S4.79 0 10.702 0h19.596C36.21 0 41 4.7 41 10.5 41 16.29 36.21 21 30.298 21Z" fill="#fff"/></mask><g mask="url('#mask0_71_2790')"><path d="M43.878-3.904H-3.844v30.43h47.722v-30.43Z" fill="url('#paint0_linear_71_2790')"/><path opacity=".15" d="M-3.927 12.396s2.857-.112 3.075-.082c.218.031 4.717-.234 6.38-.356 1.662-.123 5.34.112 4.447-.418-.894-.52 3.875-.51 5.09-.55 1.206-.052 4.022-.46 3.076-.847-.945-.387 1.133-.234 1.653-.754.519-.52-5.03-1.173-8.687-1.295-3.657-.122-3.522-.234-3.366-.326.156-.092.79-.235-1.133-.51-1.912-.275-1.59-.601-1.35-.693.446-.173.249-.388-.094-.5C3.72 5.607 2.192 5.75.696 5.8c-.25.01-.488.02-.738.02-.155 0-.311.01-.467.01-.26 0-3.356 0-3.356-.09l-.062 6.656ZM13.726 9.98c.072-.163.467-.214.602-.235.385-.05.759.123 1.154.123.332 0 .716-.133 1.039-.061.228.05.322.163.083.285a1.659 1.659 0 0 1-.696.163c-.343 0-.624-.132-.977-.092-.042 0-.094.01-.135.01-.27.031-.561.052-.821 0-.094-.02-.301-.06-.25-.193ZM.987 11.11c0-.122.374-.244.468-.265.488-.173 1.008-.204 1.506-.305.26-.051.52-.092.78-.082.374.02.727.122 1.1.112.417-.01.832-.102 1.258-.112.114 0 1.829-.03 1.756.275-.041.204-.893.153-1.029.163-.342.01-.716-.03-1.049.072-.301.081-.571.244-.883.285-.353.051-.717.03-1.07.01-.291-.02-.582-.04-.873-.05-.229-.01-1.954.142-1.964-.103Zm-3.356-4.373h.883c1.476.03 2.577.03 2.203.275-.374.245-.499.367.79.337 1.288-.03 3.563.173 2.815.397-.758.235-1.537.276-1.039.327.5.05 1.112.122.821.265-.301.142.094.173.821.122.727-.051 5.029.265 4.54.54-.488.276-3.428-.06-3.033.235.394.295-.624.204-1.34.275-.707.082-2.858.387-4.198.183-1.33-.203-1.382-.112-1.943-.112-.561 0-1.3-.03-1.3-.03V6.738h-.02Z" fill="#fff"/><path d="m2.1 13.283-.011.133-.115-.041.115.04-.073.103.083-.102.073.102-.073-.102.125-.041-.125.04v-.132Z" fill="url('#paint1_radial_71_2790')"/><path d="M1.891 13.416c0 .112.094.204.208.204a.207.207 0 0 0 .208-.204.207.207 0 0 0-.208-.204c-.114-.01-.208.081-.208.204Z" fill="url('#paint2_radial_71_2790')"/><path d="M1.985 13.416a.114.114 0 0 0 .229 0 .114.114 0 0 0-.115-.112.114.114 0 0 0-.114.112Z" fill="url('#paint3_radial_71_2790')"/><path d="M11.617 17.483v.122l-.125-.03.125.04-.073.102.073-.102.072.102-.072-.102.125-.04-.125.03v-.122Z" fill="url('#paint4_radial_71_2790')"/><path d="M11.408 17.606c0 .112.094.204.208.204a.207.207 0 0 0 .208-.204.206.206 0 0 0-.208-.204.207.207 0 0 0-.208.204Z" fill="url('#paint5_radial_71_2790')"/><path d="M11.512 17.605c0 .061.053.112.115.112.062 0 .114-.05.114-.112a.114.114 0 0 0-.114-.112c-.073.01-.115.061-.115.112Z" fill="url('#paint6_radial_71_2790')"/><path d="m13.954 3.19-.01.123-.114-.03.114.04-.073.102.083-.102.073.102-.072-.102.124-.04-.125.03v-.122Z" fill="url('#paint7_radial_71_2790')"/><path d="M13.746 3.313c0 .112.094.204.208.204a.206.206 0 0 0 .208-.204.206.206 0 0 0-.208-.204.207.207 0 0 0-.208.204Z" fill="url('#paint8_radial_71_2790')"/><path d="M13.84 3.313c0 .061.052.112.115.112a.114.114 0 0 0 .114-.112.114.114 0 0 0-.114-.112c-.063.01-.115.051-.115.112Z" fill="url('#paint9_radial_71_2790')"/><path d="M17.227 7.87v.133l-.125-.041.125.04-.072.103.072-.102.084.102-.073-.102.114-.041-.125.04V7.87Z" fill="url('#paint10_radial_71_2790')"/><path d="M17.02 8.003c0 .112.093.204.207.204a.206.206 0 0 0 .208-.204.206.206 0 0 0-.208-.204.206.206 0 0 0-.208.204Z" fill="url('#paint11_radial_71_2790')"/><path d="M17.123 8.002c0 .061.052.112.115.112a.114.114 0 0 0 .114-.112.114.114 0 0 0-.114-.112.114.114 0 0 0-.115.112Z" fill="url('#paint12_radial_71_2790')"/><path d="M22.288 2.957v.132l-.125-.04.125.04-.073.102.073-.102.072.102-.072-.102.125-.04-.125.04v-.132Z" fill="url('#paint13_radial_71_2790')"/><path d="M22.08 3.089c0 .112.093.204.207.204a.207.207 0 0 0 .208-.204.207.207 0 0 0-.208-.204c-.114-.01-.208.082-.208.204Z" fill="url('#paint14_radial_71_2790')"/><path d="M22.183 3.09c0 .06.052.111.115.111a.114.114 0 0 0 .114-.112.114.114 0 0 0-.114-.112.108.108 0 0 0-.115.112Z" fill="url('#paint15_radial_71_2790')"/><path d="m13.747 11.754-.01.132-.115-.04.114.04-.072.102.083-.102.073.102-.073-.102.125-.04-.125.04v-.132Z" fill="url('#paint16_radial_71_2790')"/><path d="M13.539 11.886c0 .112.093.204.207.204a.207.207 0 0 0 .208-.204.207.207 0 0 0-.208-.204c-.114-.01-.207.082-.207.204Z" fill="url('#paint17_radial_71_2790')"/><path d="M13.632 11.886c0 .062.052.113.115.113a.114.114 0 0 0 .114-.113.114.114 0 0 0-.114-.112.114.114 0 0 0-.115.113Z" fill="url('#paint18_radial_71_2790')"/><path d="M22.495 16.443v.132l-.125-.04.125.04-.073.102.073-.102.084.102-.073-.102.114-.04-.125.04v-.132Z" fill="url('#paint19_radial_71_2790')"/><path d="M22.287 16.576c0 .112.094.204.208.204a.206.206 0 0 0 .208-.204.206.206 0 0 0-.208-.204c-.114-.01-.208.081-.208.204Z" fill="url('#paint20_radial_71_2790')"/><path d="M22.391 16.576c0 .061.052.112.115.112.062 0 .114-.05.114-.112a.114.114 0 0 0-.114-.112.114.114 0 0 0-.115.112Z" fill="url('#paint21_radial_71_2790')"/><path d="M39.556 18.38v.132l-.125-.04.125.04-.073.102.073-.102.083.102-.073-.102.115-.04-.114.04-.01-.132Z" fill="url('#paint22_radial_71_2790')"/><path d="M39.348 18.513c0 .112.093.204.208.204a.206.206 0 0 0 .208-.204.206.206 0 0 0-.208-.204c-.115-.01-.208.081-.208.204Z" fill="url('#paint23_radial_71_2790')"/><path d="M39.452 18.513a.114.114 0 0 0 .23 0 .114.114 0 0 0-.116-.112.114.114 0 0 0-.114.112Z" fill="url('#paint24_radial_71_2790')"/><path d="M40.917 13.293v.133l-.125-.041.125.04-.073.102.073-.101.084.101-.084-.101.125-.041-.125.04v-.132Z" fill="url('#paint25_radial_71_2790')"/><path d="M40.709 13.426c0 .112.093.204.208.204a.206.206 0 0 0 .208-.204.206.206 0 0 0-.208-.204c-.114-.01-.208.082-.208.204Z" fill="url('#paint26_radial_71_2790')"/><path d="M40.813 13.426a.114.114 0 0 0 .229 0 .114.114 0 0 0-.114-.112.108.108 0 0 0-.115.112Z" fill="url('#paint27_radial_71_2790')"/><path d="m36.429 3.497-.01.122-.115-.03.114.04-.072.102.083-.102.073.102-.073-.102.125-.04-.125.03v-.122Z" fill="url('#paint28_radial_71_2790')"/><path d="M36.22 3.619c0 .112.094.204.208.204a.206.206 0 0 0 .208-.204.206.206 0 0 0-.208-.204.206.206 0 0 0-.207.204Z" fill="url('#paint29_radial_71_2790')"/><path d="M36.314 3.619c0 .061.052.112.115.112a.114.114 0 0 0 .114-.112.114.114 0 0 0-.114-.112c-.063.01-.115.05-.115.112Z" fill="url('#paint30_radial_71_2790')"/><path d="m.987 3.089-.01.122-.114-.04.114.04-.073.102.083-.092.073.092-.073-.102.125-.04-.125.04V3.09Z" fill="url('#paint31_radial_71_2790')"/><path d="M.78 3.211c0 .112.093.204.207.204a.206.206 0 0 0 .208-.204.206.206 0 0 0-.208-.204.206.206 0 0 0-.208.204Z" fill="url('#paint32_radial_71_2790')"/><path d="M.873 3.211c0 .061.052.112.115.112a.114.114 0 0 0 .114-.112.114.114 0 0 0-.114-.112.114.114 0 0 0-.115.112Z" fill="url('#paint33_radial_71_2790')"/><path d="m7.47 5.8-.01.133-.114-.04.114.04-.072.102.083-.102.073.102-.073-.102.125-.04-.125.04v-.132Z" fill="url('#paint34_radial_71_2790')"/><path d="M7.263 5.933c0 .113.093.204.208.204a.206.206 0 0 0 .207-.204.206.206 0 0 0-.207-.204.206.206 0 0 0-.208.204Z" fill="url('#paint35_radial_71_2790')"/><path d="M7.356 5.933c0 .061.053.112.115.112a.114.114 0 0 0 .114-.112.114.114 0 0 0-.114-.112.114.114 0 0 0-.115.112Z" fill="url('#paint36_radial_71_2790')"/><path d="m26.132 10.969-.01.132-.115-.04.115.04-.073.102.083-.102.073.102-.073-.102.125-.04-.125.03v-.122Z" fill="url('#paint37_radial_71_2790')"/><path d="M25.924 11.092c0 .112.093.204.208.204a.207.207 0 0 0 .207-.204.206.206 0 0 0-.207-.204.206.206 0 0 0-.208.204Z" fill="url('#paint38_radial_71_2790')"/><path d="M26.018 11.091a.114.114 0 0 0 .229 0 .114.114 0 0 0-.115-.112c-.062 0-.114.061-.114.112Z" fill="url('#paint39_radial_71_2790')"/></g><mask id="mask1_71_2790" style="mask-type:luminance" maskUnits="userSpaceOnUse" x="0" y="0" width="41" height="21"><path d="M30.298 21H10.702C4.79 21 0 16.3 0 10.5S4.79 0 10.702 0h19.596C36.21 0 41 4.7 41 10.5 41 16.29 36.21 21 30.298 21Z" fill="#fff"/></mask><g mask="url('#mask1_71_2790')"><path d="M43.992 11.081s-.696-.04-.966.673c0 0-.208-.877-1.257-1.203-1.04-.316.468-.846-1.87-1.08-2.338-.235-2.473.866-1.632 1.141.852.275-3.2.133-1.537 1.132 1.673 1.009-2.795-.367-2.234.989.56 1.355-.998.469-1.84.428-.841-.041-1.651.122-1.662.907-.01.775-1.527.02-2.067.704-.54.682-.977.499-1.559.132s-1.32.01-2.016.326-1.08-.194-2.296.02c-1.216.215-2.39.306-3.107.357-.717.051-1.579-.132-2.036.225 0 0 .384-.174 1.506 0 1.123.173 1.174.418 2.12.295.946-.122 1.766-.153 2.255.03 0 0-.665-.346-1.787-.325-1.133.02.581-.316 1.776-.296 1.195.02 1.361.204 2.172.082.81-.123 2.338.458.78.55-1.56.092-2.069.204-2.733.347-.665.142-1.673-.143-1.673-.143s.82.581 1.984.357c1.164-.224 2.432-.184 3.47-.112 1.04.06 1.912-.47 3.7-.174 1.797.296 3.657.755 5.07.49 1.413-.265 2.847.04 3.21.132 0 0-1.849-.397-3.615-.326-1.756.071-1.486-.51-.78-.418.697.081 1.746.336 2.67.132 0 0-1.267-.04-2.067-.642-.81-.601.998.092 1.985.276.987.183 2.743.448 3.875.193 0 0-1.122.051-1.828-.469-.707-.52.862-.01 1.6-.01.737 0 1.86-.224 2.39-.275V11.08Z" fill="#fff"/></g><defs><radialGradient id="paint1_radial_71_2790" cx="0" cy="0" r="1" gradientUnits="userSpaceOnUse" gradientTransform="matrix(-.12172 0 0 -.11918 2.098 13.4)"><stop stop-color="#fff"/><stop offset=".994" stop-color="#fff"/></radialGradient><radialGradient id="paint2_radial_71_2790" cx="0" cy="0" r="1" gradientUnits="userSpaceOnUse" gradientTransform="matrix(-.20976 0 0 -.2058 2.1 13.41)"><stop stop-color="#fff"/><stop offset=".103" stop-color="#F9F9FC"/><stop offset=".247" stop-color="#E7E7F2"/><stop offset=".414" stop-color="#C9CAE3"/><stop offset=".599" stop-color="#A0A1CD"/><stop offset=".799" stop-color="#6B6DB2"/><stop offset="1" stop-color="#2E3192"/></radialGradient><radialGradient id="paint3_radial_71_2790" cx="0" cy="0" r="1" gradientUnits="userSpaceOnUse" gradientTransform="matrix(-.11009 0 0 -.1078 2.1 13.41)"><stop stop-color="#fff"/><stop offset=".103" stop-color="#F9F9FC"/><stop offset=".247" stop-color="#E7E7F2"/><stop offset=".414" stop-color="#C9CAE3"/><stop offset=".599" stop-color="#A0A1CD"/><stop offset=".799" stop-color="#6B6DB2"/><stop offset="1" stop-color="#2E3192"/></radialGradient><radialGradient id="paint4_radial_71_2790" cx="0" cy="0" r="1" gradientUnits="userSpaceOnUse" gradientTransform="matrix(-.12172 0 0 -.11918 11.617 17.598)"><stop stop-color="#fff"/><stop offset=".994" stop-color="#fff"/></radialGradient><radialGradient id="paint5_radial_71_2790" cx="0" cy="0" r="1" gradientUnits="userSpaceOnUse" gradientTransform="matrix(-.2098 0 0 -.20584 11.619 17.61)"><stop stop-color="#fff"/><stop offset=".103" stop-color="#F9F9FC"/><stop offset=".247" stop-color="#E7E7F2"/><stop offset=".414" stop-color="#C9CAE3"/><stop offset=".599" stop-color="#A0A1CD"/><stop offset=".799" stop-color="#6B6DB2"/><stop offset="1" stop-color="#2E3192"/></radialGradient><radialGradient id="paint6_radial_71_2790" cx="0" cy="0" r="1" gradientUnits="userSpaceOnUse" gradientTransform="matrix(-.11009 0 0 -.1078 11.62 17.609)"><stop stop-color="#fff"/><stop offset=".103" stop-color="#F9F9FC"/><stop offset=".247" stop-color="#E7E7F2"/><stop offset=".414" stop-color="#C9CAE3"/><stop offset=".599" stop-color="#A0A1CD"/><stop offset=".799" stop-color="#6B6DB2"/><stop offset="1" stop-color="#2E3192"/></radialGradient><radialGradient id="paint7_radial_71_2790" cx="0" cy="0" r="1" gradientUnits="userSpaceOnUse" gradientTransform="matrix(-.12179 0 0 -.11925 13.952 3.306)"><stop stop-color="#fff"/><stop offset=".994" stop-color="#fff"/></radialGradient><radialGradient id="paint8_radial_71_2790" cx="0" cy="0" r="1" gradientUnits="userSpaceOnUse" gradientTransform="matrix(-.2098 0 0 -.20584 13.953 3.316)"><stop stop-color="#fff"/><stop offset=".103" stop-color="#F9F9FC"/><stop offset=".247" stop-color="#E7E7F2"/><stop offset=".414" stop-color="#C9CAE3"/><stop offset=".599" stop-color="#A0A1CD"/><stop offset=".799" stop-color="#6B6DB2"/><stop offset="1" stop-color="#2E3192"/></radialGradient><radialGradient id="paint9_radial_71_2790" cx="0" cy="0" r="1" gradientUnits="userSpaceOnUse" gradientTransform="matrix(-.11017 0 0 -.10787 13.953 3.316)"><stop stop-color="#fff"/><stop offset=".103" stop-color="#F9F9FC"/><stop offset=".247" stop-color="#E7E7F2"/><stop offset=".414" stop-color="#C9CAE3"/><stop offset=".599" stop-color="#A0A1CD"/><stop offset=".799" stop-color="#6B6DB2"/><stop offset="1" stop-color="#2E3192"/></radialGradient><radialGradient id="paint10_radial_71_2790" cx="0" cy="0" r="1" gradientUnits="userSpaceOnUse" gradientTransform="matrix(-.12172 0 0 -.11918 17.23 7.99)"><stop stop-color="#fff"/><stop offset=".994" stop-color="#fff"/></radialGradient><radialGradient id="paint11_radial_71_2790" cx="0" cy="0" r="1" gradientUnits="userSpaceOnUse" gradientTransform="matrix(-.20976 0 0 -.2058 17.23 8)"><stop stop-color="#fff"/><stop offset=".103" stop-color="#F9F9FC"/><stop offset=".247" stop-color="#E7E7F2"/><stop offset=".414" stop-color="#C9CAE3"/><stop offset=".599" stop-color="#A0A1CD"/><stop offset=".799" stop-color="#6B6DB2"/><stop offset="1" stop-color="#2E3192"/></radialGradient><radialGradient id="paint12_radial_71_2790" cx="0" cy="0" r="1" gradientUnits="userSpaceOnUse" gradientTransform="matrix(-.11009 0 0 -.1078 17.231 8)"><stop stop-color="#fff"/><stop offset=".103" stop-color="#F9F9FC"/><stop offset=".247" stop-color="#E7E7F2"/><stop offset=".414" stop-color="#C9CAE3"/><stop offset=".599" stop-color="#A0A1CD"/><stop offset=".799" stop-color="#6B6DB2"/><stop offset="1" stop-color="#2E3192"/></radialGradient><radialGradient id="paint13_radial_71_2790" cx="0" cy="0" r="1" gradientUnits="userSpaceOnUse" gradientTransform="matrix(-.12168 0 0 -.11914 22.287 3.073)"><stop stop-color="#fff"/><stop offset=".994" stop-color="#fff"/></radialGradient><radialGradient id="paint14_radial_71_2790" cx="0" cy="0" r="1" gradientUnits="userSpaceOnUse" gradientTransform="matrix(-.2098 0 0 -.20584 22.289 3.084)"><stop stop-color="#fff"/><stop offset=".103" stop-color="#F9F9FC"/><stop offset=".247" stop-color="#E7E7F2"/><stop offset=".414" stop-color="#C9CAE3"/><stop offset=".599" stop-color="#A0A1CD"/><stop offset=".799" stop-color="#6B6DB2"/><stop offset="1" stop-color="#2E3192"/></radialGradient><radialGradient id="paint15_radial_71_2790" cx="0" cy="0" r="1" gradientUnits="userSpaceOnUse" gradientTransform="matrix(-.11017 0 0 -.10787 22.289 3.084)"><stop stop-color="#fff"/><stop offset=".103" stop-color="#F9F9FC"/><stop offset=".247" stop-color="#E7E7F2"/><stop offset=".414" stop-color="#C9CAE3"/><stop offset=".599" stop-color="#A0A1CD"/><stop offset=".799" stop-color="#6B6DB2"/><stop offset="1" stop-color="#2E3192"/></radialGradient><radialGradient id="paint16_radial_71_2790" cx="0" cy="0" r="1" gradientUnits="userSpaceOnUse" gradientTransform="matrix(-.12176 0 0 -.11922 13.742 11.872)"><stop stop-color="#fff"/><stop offset=".994" stop-color="#fff"/></radialGradient><radialGradient id="paint17_radial_71_2790" cx="0" cy="0" r="1" gradientUnits="userSpaceOnUse" gradientTransform="matrix(-.20972 0 0 -.20576 13.743 11.882)"><stop stop-color="#fff"/><stop offset=".103" stop-color="#F9F9FC"/><stop offset=".247" stop-color="#E7E7F2"/><stop offset=".414" stop-color="#C9CAE3"/><stop offset=".599" stop-color="#A0A1CD"/><stop offset=".799" stop-color="#6B6DB2"/><stop offset="1" stop-color="#2E3192"/></radialGradient><radialGradient id="paint18_radial_71_2790" cx="0" cy="0" r="1" gradientUnits="userSpaceOnUse" gradientTransform="matrix(-.11009 0 0 -.1078 13.744 11.883)"><stop stop-color="#fff"/><stop offset=".103" stop-color="#F9F9FC"/><stop offset=".247" stop-color="#E7E7F2"/><stop offset=".414" stop-color="#C9CAE3"/><stop offset=".599" stop-color="#A0A1CD"/><stop offset=".799" stop-color="#6B6DB2"/><stop offset="1" stop-color="#2E3192"/></radialGradient><radialGradient id="paint19_radial_71_2790" cx="0" cy="0" r="1" gradientUnits="userSpaceOnUse" gradientTransform="matrix(-.1216 0 0 -.11906 22.497 16.561)"><stop stop-color="#fff"/><stop offset=".994" stop-color="#fff"/></radialGradient><radialGradient id="paint20_radial_71_2790" cx="0" cy="0" r="1" gradientUnits="userSpaceOnUse" gradientTransform="matrix(-.20972 0 0 -.20576 22.499 16.572)"><stop stop-color="#fff"/><stop offset=".103" stop-color="#F9F9FC"/><stop offset=".247" stop-color="#E7E7F2"/><stop offset=".414" stop-color="#C9CAE3"/><stop offset=".599" stop-color="#A0A1CD"/><stop offset=".799" stop-color="#6B6DB2"/><stop offset="1" stop-color="#2E3192"/></radialGradient><radialGradient id="paint21_radial_71_2790" cx="0" cy="0" r="1" gradientUnits="userSpaceOnUse" gradientTransform="matrix(-.1102 0 0 -.1079 22.499 16.572)"><stop stop-color="#fff"/><stop offset=".103" stop-color="#F9F9FC"/><stop offset=".247" stop-color="#E7E7F2"/><stop offset=".414" stop-color="#C9CAE3"/><stop offset=".599" stop-color="#A0A1CD"/><stop offset=".799" stop-color="#6B6DB2"/><stop offset="1" stop-color="#2E3192"/></radialGradient><radialGradient id="paint22_radial_71_2790" cx="0" cy="0" r="1" gradientUnits="userSpaceOnUse" gradientTransform="matrix(-.1218 0 0 -.11925 39.56 18.498)"><stop stop-color="#fff"/><stop offset=".994" stop-color="#fff"/></radialGradient><radialGradient id="paint23_radial_71_2790" cx="0" cy="0" r="1" gradientUnits="userSpaceOnUse" gradientTransform="matrix(-.20973 0 0 -.20577 39.562 18.509)"><stop stop-color="#fff"/><stop offset=".103" stop-color="#F9F9FC"/><stop offset=".247" stop-color="#E7E7F2"/><stop offset=".414" stop-color="#C9CAE3"/><stop offset=".599" stop-color="#A0A1CD"/><stop offset=".799" stop-color="#6B6DB2"/><stop offset="1" stop-color="#2E3192"/></radialGradient><radialGradient id="paint24_radial_71_2790" cx="0" cy="0" r="1" gradientUnits="userSpaceOnUse" gradientTransform="matrix(-.11013 0 0 -.10783 39.562 18.509)"><stop stop-color="#fff"/><stop offset=".103" stop-color="#F9F9FC"/><stop offset=".247" stop-color="#E7E7F2"/><stop offset=".414" stop-color="#C9CAE3"/><stop offset=".599" stop-color="#A0A1CD"/><stop offset=".799" stop-color="#6B6DB2"/><stop offset="1" stop-color="#2E3192"/></radialGradient><radialGradient id="paint25_radial_71_2790" cx="0" cy="0" r="1" gradientUnits="userSpaceOnUse" gradientTransform="matrix(-.12179 0 0 -.11925 40.918 13.41)"><stop stop-color="#fff"/><stop offset=".994" stop-color="#fff"/></radialGradient><radialGradient id="paint26_radial_71_2790" cx="0" cy="0" r="1" gradientUnits="userSpaceOnUse" gradientTransform="matrix(-.2098 0 0 -.20584 40.92 13.421)"><stop stop-color="#fff"/><stop offset=".103" stop-color="#F9F9FC"/><stop offset=".247" stop-color="#E7E7F2"/><stop offset=".414" stop-color="#C9CAE3"/><stop offset=".599" stop-color="#A0A1CD"/><stop offset=".799" stop-color="#6B6DB2"/><stop offset="1" stop-color="#2E3192"/></radialGradient><radialGradient id="paint27_radial_71_2790" cx="0" cy="0" r="1" gradientUnits="userSpaceOnUse" gradientTransform="matrix(-.11016 0 0 -.10786 40.92 13.421)"><stop stop-color="#fff"/><stop offset=".103" stop-color="#F9F9FC"/><stop offset=".247" stop-color="#E7E7F2"/><stop offset=".414" stop-color="#C9CAE3"/><stop offset=".599" stop-color="#A0A1CD"/><stop offset=".799" stop-color="#6B6DB2"/><stop offset="1" stop-color="#2E3192"/></radialGradient><radialGradient id="paint28_radial_71_2790" cx="0" cy="0" r="1" gradientUnits="userSpaceOnUse" gradientTransform="matrix(-.12176 0 0 -.11922 36.426 3.612)"><stop stop-color="#fff"/><stop offset=".994" stop-color="#fff"/></radialGradient><radialGradient id="paint29_radial_71_2790" cx="0" cy="0" r="1" gradientUnits="userSpaceOnUse" gradientTransform="matrix(-.20973 0 0 -.20577 36.427 3.622)"><stop stop-color="#fff"/><stop offset=".103" stop-color="#F9F9FC"/><stop offset=".247" stop-color="#E7E7F2"/><stop offset=".414" stop-color="#C9CAE3"/><stop offset=".599" stop-color="#A0A1CD"/><stop offset=".799" stop-color="#6B6DB2"/><stop offset="1" stop-color="#2E3192"/></radialGradient><radialGradient id="paint30_radial_71_2790" cx="0" cy="0" r="1" gradientUnits="userSpaceOnUse" gradientTransform="matrix(-.11009 0 0 -.1078 36.427 3.622)"><stop stop-color="#fff"/><stop offset=".103" stop-color="#F9F9FC"/><stop offset=".247" stop-color="#E7E7F2"/><stop offset=".414" stop-color="#C9CAE3"/><stop offset=".599" stop-color="#A0A1CD"/><stop offset=".799" stop-color="#6B6DB2"/><stop offset="1" stop-color="#2E3192"/></radialGradient><radialGradient id="paint31_radial_71_2790" cx="0" cy="0" r="1" gradientUnits="userSpaceOnUse" gradientTransform="matrix(-.12172 0 0 -.11918 .986 3.2)"><stop stop-color="#fff"/><stop offset=".994" stop-color="#fff"/></radialGradient><radialGradient id="paint32_radial_71_2790" cx="0" cy="0" r="1" gradientUnits="userSpaceOnUse" gradientTransform="matrix(-.20976 0 0 -.2058 .987 3.21)"><stop stop-color="#fff"/><stop offset=".103" stop-color="#F9F9FC"/><stop offset=".247" stop-color="#E7E7F2"/><stop offset=".414" stop-color="#C9CAE3"/><stop offset=".599" stop-color="#A0A1CD"/><stop offset=".799" stop-color="#6B6DB2"/><stop offset="1" stop-color="#2E3192"/></radialGradient><radialGradient id="paint33_radial_71_2790" cx="0" cy="0" r="1" gradientUnits="userSpaceOnUse" gradientTransform="matrix(-.11009 0 0 -.1078 .988 3.21)"><stop stop-color="#fff"/><stop offset=".103" stop-color="#F9F9FC"/><stop offset=".247" stop-color="#E7E7F2"/><stop offset=".414" stop-color="#C9CAE3"/><stop offset=".599" stop-color="#A0A1CD"/><stop offset=".799" stop-color="#6B6DB2"/><stop offset="1" stop-color="#2E3192"/></radialGradient><radialGradient id="paint34_radial_71_2790" cx="0" cy="0" r="1" gradientUnits="userSpaceOnUse" gradientTransform="matrix(-.12163 0 0 -.1191 7.468 5.921)"><stop stop-color="#fff"/><stop offset=".994" stop-color="#fff"/></radialGradient><radialGradient id="paint35_radial_71_2790" cx="0" cy="0" r="1" gradientUnits="userSpaceOnUse" gradientTransform="matrix(-.20984 0 0 -.20588 7.469 5.932)"><stop stop-color="#fff"/><stop offset=".103" stop-color="#F9F9FC"/><stop offset=".247" stop-color="#E7E7F2"/><stop offset=".414" stop-color="#C9CAE3"/><stop offset=".599" stop-color="#A0A1CD"/><stop offset=".799" stop-color="#6B6DB2"/><stop offset="1" stop-color="#2E3192"/></radialGradient><radialGradient id="paint36_radial_71_2790" cx="0" cy="0" r="1" gradientUnits="userSpaceOnUse" gradientTransform="matrix(-.11009 0 0 -.1078 7.47 5.931)"><stop stop-color="#fff"/><stop offset=".103" stop-color="#F9F9FC"/><stop offset=".247" stop-color="#E7E7F2"/><stop offset=".414" stop-color="#C9CAE3"/><stop offset=".599" stop-color="#A0A1CD"/><stop offset=".799" stop-color="#6B6DB2"/><stop offset="1" stop-color="#2E3192"/></radialGradient><radialGradient id="paint37_radial_71_2790" cx="0" cy="0" r="1" gradientUnits="userSpaceOnUse" gradientTransform="matrix(-.12179 0 0 -.11925 26.13 11.085)"><stop stop-color="#fff"/><stop offset=".994" stop-color="#fff"/></radialGradient><radialGradient id="paint38_radial_71_2790" cx="0" cy="0" r="1" gradientUnits="userSpaceOnUse" gradientTransform="matrix(-.20977 0 0 -.20581 26.132 11.096)"><stop stop-color="#fff"/><stop offset=".103" stop-color="#F9F9FC"/><stop offset=".247" stop-color="#E7E7F2"/><stop offset=".414" stop-color="#C9CAE3"/><stop offset=".599" stop-color="#A0A1CD"/><stop offset=".799" stop-color="#6B6DB2"/><stop offset="1" stop-color="#2E3192"/></radialGradient><radialGradient id="paint39_radial_71_2790" cx="0" cy="0" r="1" gradientUnits="userSpaceOnUse" gradientTransform="matrix(-.11016 0 0 -.10786 26.132 11.096)"><stop stop-color="#fff"/><stop offset=".103" stop-color="#F9F9FC"/><stop offset=".247" stop-color="#E7E7F2"/><stop offset=".414" stop-color="#C9CAE3"/><stop offset=".599" stop-color="#A0A1CD"/><stop offset=".799" stop-color="#6B6DB2"/><stop offset="1" stop-color="#2E3192"/></radialGradient><linearGradient id="paint0_linear_71_2790" x1="20.017" y1="-4.066" x2="20.017" y2="33.279" gradientUnits="userSpaceOnUse"><stop stop-color="#D7E163"/><stop offset=".247" stop-color="#A8CC5D"/><stop offset=".34" stop-color="#D4D810"/><stop offset=".501" stop-color="#E9D735"/><stop offset=".711" stop-color="#0C5678"/><stop offset=".96" stop-color="#028CB7"/><stop offset="1" stop-color="#0095C2"/></linearGradient></defs></svg>