<svg width="17" height="16" fill="none" xmlns="http://www.w3.org/2000/svg"><g opacity=".8"><path d="M8.005 15.01c4.421 0 8.005-3.36 8.005-7.505S12.427 0 8.005 0C3.585 0 0 3.36 0 7.505s3.584 7.505 8.005 7.505Z" fill="url('#paint0_linear_71_2889')"/><path opacity=".1" d="M3.417 3.273c-1.118 2.61.454 5.666 3.523 6.823 3.07 1.156 6.465-.02 7.583-2.63C15.641 4.854 14.07 1.8 11.001.642c-3.06-1.157-6.455.02-7.584 2.63Z" fill="#fff"/><path opacity=".2" d="M6.676 2.294c-.664 1.562.275 3.391 2.11 4.084 1.835.692 3.87-.01 4.535-1.573.675-1.562-.274-3.391-2.11-4.083-1.834-.693-3.86.01-4.535 1.572Z" fill="#fff"/><path opacity=".5" d="M1.213 3.53a7.31 7.31 0 0 0-.264 1.938c0 4.143 3.586 7.505 8.006 7.505 2.858 0 5.368-1.414 6.781-3.53-.907 3.204-4.029 5.567-7.73 5.567C3.585 15 0 11.648 0 7.505A7.1 7.1 0 0 1 1.213 3.53Z" fill="#D9D9D9"/><path opacity=".5" d="M14.07 7.505c-.19.317-.464 1.246 0 1.464.464.217.918-.653.918-1.335-.011-.692-.39-.99-.918-.129ZM5.527 8.632c.327.337.337.742.126.92-.221.178-.696 0-.991-.544-.295-.554-.021-1.275.865-.376ZM10.42 2.482c.264.277.77.346.686-.307-.095-.652-1.35-.405-.685.307ZM12.235 11.54c-.085-.178-.412-.1-.464.207-.053.307.759.386.464-.207Z" fill="#D9D9D9"/><path d="M4.103 11.174c.18.118.221.524-.158.277-.39-.248-.116-.455.158-.277ZM2.173 8.108c.263.356-.232 1.098-.517.435-.253-.583.021-1.107.517-.435ZM2.363 5.636c-.116-.06-.275.1-.127.287.17.178.444-.138.127-.287ZM7.425 4.806c-.158-.178-.696.049-.432.276.432.356.79.129.432-.276ZM5.147 3.036c-.105-.09-.222.197-.105.247.116.06.338-.06.105-.247ZM9.757 2.363c.116.05.137.277-.127.178-.264-.098-.116-.286.127-.178ZM11.413 5.112c.169.07.031.247-.212.198-.243-.06-.042-.297.212-.198ZM11.961 9.829c.074.079-.053.247-.19.109-.138-.139.063-.238.19-.11ZM7.32 6.407c.116.129-.032.178-.148.1-.116-.08.032-.228.148-.1ZM14.977 5.676c.106.128-.042.287-.19.118-.137-.158.085-.247.19-.118ZM6.444 9.611s-.02-.03-.052-.07l-.064-.059a.583.583 0 0 0-.084-.059c-.01-.01-.032-.02-.042-.03-.01-.01-.032-.01-.042-.02a.758.758 0 0 1-.085-.029c-.052-.01-.084-.02-.084-.02s.032.02.063.05c.021.01.042.03.074.05.032.009.053.029.084.049.032.02.053.03.085.049.031.01.053.03.074.04.02.01.042.02.052.03.011.019.021.019.021.019ZM6.212 9.996s-.01-.04-.042-.089c-.01-.01-.02-.03-.031-.04-.011-.01-.022-.029-.032-.039-.032-.03-.053-.06-.095-.079-.021-.01-.032-.02-.053-.04-.02-.01-.031-.02-.052-.03A.328.328 0 0 0 5.8 9.64c-.063-.02-.105-.02-.105-.02s.031.03.084.06c.032.01.053.04.084.06.032.019.064.039.095.068.032.02.064.05.095.07.032.02.053.05.074.069l.053.05c.02-.01.031 0 .031 0ZM14.397 6.447v.089c0 .06.01.128.042.198a.435.435 0 0 0 .18.237s0-.01-.01-.02c0-.01-.011-.01-.011-.02s-.01-.02-.021-.03c-.021-.049-.053-.108-.074-.177-.021-.07-.053-.139-.064-.188-.031-.05-.042-.09-.042-.09ZM14.112 6.714s-.01.03-.02.079c0 .05 0 .119.03.178.011.02.011.03.022.05.01.02.021.03.032.039.02.03.042.05.063.07l.074.049s-.01-.03-.042-.07c-.01-.02-.021-.05-.043-.069a.29.29 0 0 0-.042-.079l-.031-.089c-.011-.03-.022-.05-.022-.079-.01-.02-.01-.04-.02-.06v-.02ZM13.374 7.554s.042.01.095.02c.031 0 .063.01.095.02.02 0 .031.01.052.01.021 0 .032.01.053.01.021 0 .032.01.053.01.02.01.032.01.053.01l.095.029c.052.02.094.03.094.03l-.073-.07c-.021-.02-.053-.03-.085-.049-.031-.02-.074-.03-.116-.04-.074-.02-.158-.02-.221-.02-.053.02-.095.04-.095.04ZM13.817 8.296s-.01 0-.021-.01c-.01 0-.021 0-.032-.01h-.042c-.032 0-.063 0-.095.02-.021.01-.042.01-.053.02-.02.01-.031.02-.053.03a.573.573 0 0 0-.094.068.188.188 0 0 0-.064.07c-.031.04-.053.079-.053.079s.032-.02.085-.05l.032-.03c.01-.01.031-.02.042-.03.01-.009.031-.019.042-.029.01-.01.032-.02.042-.03.032-.02.063-.039.095-.049.01-.01.032-.01.042-.02.01 0 .032-.01.042-.01.011-.01.022-.01.032-.01.01 0 .021-.01.032-.01.01.01.02 0 .02 0ZM13.87 8.75s-.031 0-.084.01a.437.437 0 0 0-.17.08c-.02.02-.052.039-.073.069-.021.03-.043.05-.043.079-.02.05-.02.079-.02.079s.02-.03.052-.06c.01-.02.042-.039.053-.059l.032-.03.031-.03c.01-.009.021-.019.043-.029.01-.01.02-.02.042-.03.021-.02.053-.03.074-.039.021-.01.042-.03.053-.03 0-.01.01-.01.01-.01ZM14.113 8.978s-.032.02-.074.06c-.021.02-.043.039-.064.069-.01.01-.02.03-.031.04-.011.019-.022.029-.032.049-.021.03-.032.069-.043.098-.01.02-.01.03-.01.05 0 .02-.01.03-.01.04V9.472s0-.01.01-.02c0-.01.01-.02.01-.03 0-.01 0-.02.011-.03.01-.01.01-.02.021-.04.01-.01.01-.029.021-.039.021-.03.032-.06.053-.089.021-.03.032-.06.053-.089.01-.03.032-.06.042-.079l.043-.079Z" fill="#D9D9D9"/></g><defs><linearGradient id="paint0_linear_71_2889" x1="12.065" y1="1.156" x2="4.681" y2="14.274" gradientUnits="userSpaceOnUse"><stop offset="0" stop-color="#F0F0F0"/><stop offset=".893" stop-color="#CBCBCB"/><stop offset="1" stop-color="#C6C6C6"/></linearGradient></defs></svg>