<svg width="47" height="23" fill="none" xmlns="http://www.w3.org/2000/svg"><mask id="mask0_56_182" style="mask-type:luminance" maskUnits="userSpaceOnUse" x="0" y="0" width="47" height="23"><path d="M34.236 23H12.093C5.413 23 0 17.853 0 11.5S5.413 0 12.093 0h22.143c6.68 0 12.093 5.147 12.093 11.5 0 6.342-5.412 11.5-12.093 11.5Z" fill="#fff"/></mask><g mask="url('#mask0_56_182')"><path d="M49.582-4.276H-4.344V29.05h53.926V-4.276Z" fill="url('#paint0_linear_56_182')"/><path opacity=".15" d="M-4.438 13.577s3.229-.123 3.475-.09c.247.034 5.33-.256 7.21-.39 1.878-.134 6.034.123 5.024-.458-1.01-.57 4.38-.558 5.753-.603 1.362-.056 4.544-.502 3.475-.927-1.068-.424 1.28-.256 1.867-.826S16.684 9 12.551 8.865c-4.133-.134-3.98-.257-3.804-.357.176-.1.892-.257-1.28-.558-2.16-.302-1.796-.66-1.526-.76.505-.19.282-.424-.106-.547-1.632-.502-3.358-.346-5.048-.29-.282.011-.552.022-.834.022-.176 0-.352.012-.528.012-.294 0-3.793 0-3.793-.1l-.07 7.29ZM15.51 10.93c.082-.179.528-.235.68-.257.435-.056.858.134 1.304.134.375 0 .81-.145 1.174-.067.258.056.364.179.094.313a1.922 1.922 0 0 1-.787.178c-.387 0-.704-.145-1.104-.1-.046 0-.105.01-.152.01-.305.034-.634.057-.928 0-.105-.021-.34-.066-.281-.211ZM1.115 12.17c0-.134.423-.268.529-.29.552-.19 1.139-.224 1.702-.335.294-.056.587-.1.88-.09.423.023.823.134 1.245.123.47-.01.94-.111 1.42-.122.13 0 2.067-.034 1.985.3-.047.224-1.01.168-1.162.18-.388.01-.81-.034-1.186.078-.34.089-.646.268-.998.312-.4.056-.81.034-1.21.011-.328-.022-.657-.044-.986-.055-.258-.011-2.207.156-2.219-.112Zm-3.792-4.79h.998c1.667.034 2.912.034 2.49.302-.424.268-.564.402.891.368 1.456-.033 4.027.19 3.182.436-.857.256-1.737.301-1.174.357.564.056 1.256.134.928.29-.34.156.105.19.927.134.822-.056 5.683.29 5.13.592-.551.301-3.874-.067-3.427.257.446.324-.705.223-1.515.301-.798.09-3.229.424-4.743.201-1.503-.223-1.562-.123-2.196-.123-.634 0-1.467-.033-1.467-.033V7.38h-.024Z" fill="#fff"/><path d="m2.372 14.548-.012.145-.129-.044.13.044-.083.112.094-.112.082.112-.082-.112.141-.044-.14.044v-.145Z" fill="url('#paint1_radial_56_182')"/><path d="M2.137 14.693a.23.23 0 0 0 .235.224c.129 0 .234-.1.234-.224a.23.23 0 0 0-.234-.223.217.217 0 0 0-.235.223Z" fill="url('#paint2_radial_56_182')"/><path d="M2.243 14.694c0 .067.059.122.13.122.07 0 .129-.055.129-.122s-.06-.123-.13-.123-.13.056-.13.123Z" fill="url('#paint3_radial_56_182')"/><path d="M13.127 19.148v.134l-.142-.033.142.044-.083.112.083-.112.082.112-.082-.112.14-.044-.14.033v-.134Z" fill="url('#paint4_radial_56_182')"/><path d="M12.891 19.282a.23.23 0 0 0 .235.223c.13 0 .235-.1.235-.223a.23.23 0 0 0-.235-.223.23.23 0 0 0-.235.223Z" fill="url('#paint5_radial_56_182')"/><path d="M13.009 19.282c0 .067.059.123.13.123.07 0 .129-.056.129-.123s-.06-.123-.13-.123c-.082.011-.13.067-.13.123Z" fill="url('#paint6_radial_56_182')"/><path d="m15.768 3.495-.011.134-.13-.034.13.045-.083.112.094-.112.083.112-.083-.112.141-.045-.14.034v-.134Z" fill="url('#paint7_radial_56_182')"/><path d="M15.533 3.629a.23.23 0 0 0 .235.223c.129 0 .235-.1.235-.223a.23.23 0 0 0-.235-.224.23.23 0 0 0-.235.224Z" fill="url('#paint8_radial_56_182')"/><path d="M15.639 3.629c0 .067.059.122.13.122.07 0 .129-.055.129-.122s-.059-.123-.13-.123c-.07.011-.129.056-.129.123Z" fill="url('#paint9_radial_56_182')"/><path d="M19.467 8.62v.145l-.141-.045.14.045-.082.112.083-.112.094.112-.082-.112.129-.045-.141.045V8.62Z" fill="url('#paint10_radial_56_182')"/><path d="M19.231 8.765a.23.23 0 0 0 .235.223c.13 0 .235-.1.235-.223a.23.23 0 0 0-.235-.224.23.23 0 0 0-.235.224Z" fill="url('#paint11_radial_56_182')"/><path d="M19.349 8.765c0 .067.059.123.13.123.07 0 .129-.056.129-.123s-.06-.123-.13-.123-.13.056-.13.123Z" fill="url('#paint12_radial_56_182')"/><path d="M25.184 3.238v.145l-.14-.044.14.044-.082.112.082-.112.083.112-.082-.112.14-.044-.14.044v-.145Z" fill="url('#paint13_radial_56_182')"/><path d="M24.95 3.383a.23.23 0 0 0 .234.224c.13 0 .235-.1.235-.224a.23.23 0 0 0-.235-.223.217.217 0 0 0-.235.223Z" fill="url('#paint14_radial_56_182')"/><path d="M25.067 3.383c0 .067.058.123.13.123.07 0 .129-.056.129-.123s-.06-.123-.13-.123c-.082 0-.13.056-.13.123Z" fill="url('#paint15_radial_56_182')"/><path d="m15.534 12.873-.012.146-.13-.045.13.044-.082.112.094-.112.082.112-.082-.112.14-.044-.14.044v-.145Z" fill="url('#paint16_radial_56_182')"/><path d="M15.298 13.019a.23.23 0 0 0 .235.223c.13 0 .235-.1.235-.223a.23.23 0 0 0-.235-.224.217.217 0 0 0-.235.224Z" fill="url('#paint17_radial_56_182')"/><path d="M15.404 13.019c0 .067.059.123.13.123.07 0 .129-.056.129-.123s-.059-.123-.13-.123c-.07 0-.129.056-.129.123Z" fill="url('#paint18_radial_56_182')"/><path d="M25.42 18.009v.145l-.142-.044.141.044-.082.112.082-.112.094.112-.082-.112.13-.044-.142.044v-.145Z" fill="url('#paint19_radial_56_182')"/><path d="M25.184 18.154a.23.23 0 0 0 .235.224c.129 0 .235-.1.235-.224a.23.23 0 0 0-.235-.223.217.217 0 0 0-.235.223Z" fill="url('#paint20_radial_56_182')"/><path d="M25.302 18.155c0 .066.058.122.129.122.07 0 .13-.056.13-.122 0-.067-.06-.123-.13-.123s-.13.056-.13.123Z" fill="url('#paint21_radial_56_182')"/><path d="M44.698 20.13v.146l-.141-.045.14.045-.082.112.083-.112.094.112-.083-.112.13-.045-.13.045-.011-.146Z" fill="url('#paint22_radial_56_182')"/><path d="M44.462 20.276a.23.23 0 0 0 .235.223c.13 0 .235-.1.235-.223a.23.23 0 0 0-.235-.223.217.217 0 0 0-.235.223Z" fill="url('#paint23_radial_56_182')"/><path d="M44.58 20.276c0 .067.059.122.13.122.07 0 .129-.055.129-.122s-.06-.123-.13-.123-.13.056-.13.123Z" fill="url('#paint24_radial_56_182')"/><path d="M46.236 14.56v.145l-.141-.045.14.045-.082.111.083-.111.094.111-.094-.111.14-.045-.14.045v-.146Z" fill="url('#paint25_radial_56_182')"/><path d="M46 14.705a.23.23 0 0 0 .235.223c.13 0 .235-.1.235-.223a.23.23 0 0 0-.235-.224.217.217 0 0 0-.234.224Z" fill="url('#paint26_radial_56_182')"/><path d="M46.118 14.704c0 .067.059.123.13.123.07 0 .129-.056.129-.123s-.06-.123-.13-.123c-.082 0-.13.056-.13.123Z" fill="url('#paint27_radial_56_182')"/><path d="m41.164 3.83-.012.134-.13-.034.13.045-.082.112.094-.112.082.112-.082-.112.14-.045-.14.034V3.83Z" fill="url('#paint28_radial_56_182')"/><path d="M40.928 3.964a.23.23 0 0 0 .235.223c.13 0 .235-.1.235-.223a.23.23 0 0 0-.235-.224.23.23 0 0 0-.234.224Z" fill="url('#paint29_radial_56_182')"/><path d="M41.034 3.964c0 .067.06.122.13.122s.13-.055.13-.122-.06-.123-.13-.123c-.07.011-.13.056-.13.123Z" fill="url('#paint30_radial_56_182')"/><path d="m1.116 3.383-.012.134-.13-.044.13.044-.082.112.094-.1.082.1-.082-.112.141-.044-.141.044v-.134Z" fill="url('#paint31_radial_56_182')"/><path d="M.88 3.517a.23.23 0 0 0 .235.224c.13 0 .235-.1.235-.224a.23.23 0 0 0-.235-.223.23.23 0 0 0-.234.223Z" fill="url('#paint32_radial_56_182')"/><path d="M.986 3.517c0 .067.06.123.13.123s.13-.056.13-.123-.06-.122-.13-.122-.13.055-.13.122Z" fill="url('#paint33_radial_56_182')"/><path d="m8.442 6.353-.012.146-.13-.045.13.045-.082.111.094-.111.082.111-.082-.111.141-.045-.14.045v-.146Z" fill="url('#paint34_radial_56_182')"/><path d="M8.207 6.498a.23.23 0 0 0 .235.223c.129 0 .234-.1.234-.223a.23.23 0 0 0-.234-.223.23.23 0 0 0-.235.223Z" fill="url('#paint35_radial_56_182')"/><path d="M8.313 6.498c0 .067.058.123.13.123.07 0 .129-.056.129-.123s-.06-.123-.13-.123-.13.056-.13.123Z" fill="url('#paint36_radial_56_182')"/><path d="m29.529 12.014-.012.145-.13-.045.13.045-.082.112.094-.112.082.112-.082-.112.14-.045-.14.034v-.134Z" fill="url('#paint37_radial_56_182')"/><path d="M29.293 12.148a.23.23 0 0 0 .235.223c.13 0 .235-.1.235-.223a.23.23 0 0 0-.235-.224.23.23 0 0 0-.235.224Z" fill="url('#paint38_radial_56_182')"/><path d="M29.4 12.147c0 .067.058.123.129.123.07 0 .129-.056.129-.123s-.059-.123-.13-.123c-.07 0-.129.067-.129.123Z" fill="url('#paint39_radial_56_182')"/></g><mask id="mask1_56_182" style="mask-type:luminance" maskUnits="userSpaceOnUse" x="0" y="0" width="47" height="23"><path d="M34.236 23H12.093C5.413 23 0 17.853 0 11.5S5.413 0 12.093 0h22.143c6.68 0 12.093 5.147 12.093 11.5 0 6.342-5.412 11.5-12.093 11.5Z" fill="#fff"/></mask><g mask="url('#mask1_56_182')"><path d="M49.71 12.136s-.786-.044-1.091.737c0 0-.235-.96-1.42-1.317-1.175-.347.527-.927-2.114-1.184-2.642-.257-2.795.95-1.844 1.25.963.302-3.616.146-1.737 1.24 1.89 1.105-3.158-.402-2.524 1.083.634 1.485-1.128.513-2.079.469-.95-.045-1.866.134-1.878.994-.012.848-1.726.022-2.337.77-.61.748-1.103.547-1.76.145-.658-.402-1.492.011-2.278.357-.787.346-1.221-.212-2.595.023-1.374.234-2.7.335-3.51.39-.81.056-1.785-.145-2.302.246 0 0 .435-.19 1.703 0s1.326.458 2.395.324c1.068-.134 1.996-.168 2.548.033 0 0-.752-.38-2.02-.357-1.28.022.657-.346 2.008-.324 1.35.023 1.538.223 2.453.09.916-.134 2.642.502.881.602-1.761.101-2.336.224-3.088.38-.751.156-1.89-.156-1.89-.156s.927.636 2.242.39c1.316-.245 2.748-.2 3.922-.122 1.174.067 2.16-.514 4.18-.19 2.03.324 4.132.826 5.73.536 1.596-.29 3.216.044 3.627.145 0 0-2.09-.435-4.086-.357-1.984.078-1.679-.558-.88-.458.786.09 1.972.368 3.017.145 0 0-1.432-.045-2.336-.703-.916-.659 1.127.1 2.242.301 1.116.201 3.1.491 4.38.212 0 0-1.268.056-2.067-.513-.798-.57.975-.012 1.808-.012.834 0 2.102-.245 2.7-.3v-4.869Z" fill="#fff"/></g><defs><radialGradient id="paint1_radial_56_182" cx="0" cy="0" r="1" gradientUnits="userSpaceOnUse" gradientTransform="matrix(-.13754 0 0 -.13085 2.37 14.676)"><stop stop-color="#fff"/><stop offset=".994" stop-color="#fff"/></radialGradient><radialGradient id="paint2_radial_56_182" cx="0" cy="0" r="1" gradientUnits="userSpaceOnUse" gradientTransform="matrix(-.23702 0 0 -.2254 2.372 14.688)"><stop stop-color="#fff"/><stop offset=".103" stop-color="#F9F9FC"/><stop offset=".247" stop-color="#E7E7F2"/><stop offset=".414" stop-color="#C9CAE3"/><stop offset=".599" stop-color="#A0A1CD"/><stop offset=".799" stop-color="#6B6DB2"/><stop offset="1" stop-color="#2E3192"/></radialGradient><radialGradient id="paint3_radial_56_182" cx="0" cy="0" r="1" gradientUnits="userSpaceOnUse" gradientTransform="matrix(-.1244 0 0 -.11806 2.372 14.688)"><stop stop-color="#fff"/><stop offset=".103" stop-color="#F9F9FC"/><stop offset=".247" stop-color="#E7E7F2"/><stop offset=".414" stop-color="#C9CAE3"/><stop offset=".599" stop-color="#A0A1CD"/><stop offset=".799" stop-color="#6B6DB2"/><stop offset="1" stop-color="#2E3192"/></radialGradient><radialGradient id="paint4_radial_56_182" cx="0" cy="0" r="1" gradientUnits="userSpaceOnUse" gradientTransform="matrix(-.13754 0 0 -.13085 13.128 19.275)"><stop stop-color="#fff"/><stop offset=".994" stop-color="#fff"/></radialGradient><radialGradient id="paint5_radial_56_182" cx="0" cy="0" r="1" gradientUnits="userSpaceOnUse" gradientTransform="matrix(-.23707 0 0 -.22545 13.13 19.286)"><stop stop-color="#fff"/><stop offset=".103" stop-color="#F9F9FC"/><stop offset=".247" stop-color="#E7E7F2"/><stop offset=".414" stop-color="#C9CAE3"/><stop offset=".599" stop-color="#A0A1CD"/><stop offset=".799" stop-color="#6B6DB2"/><stop offset="1" stop-color="#2E3192"/></radialGradient><radialGradient id="paint6_radial_56_182" cx="0" cy="0" r="1" gradientUnits="userSpaceOnUse" gradientTransform="matrix(-.1244 0 0 -.11806 13.13 19.286)"><stop stop-color="#fff"/><stop offset=".103" stop-color="#F9F9FC"/><stop offset=".247" stop-color="#E7E7F2"/><stop offset=".414" stop-color="#C9CAE3"/><stop offset=".599" stop-color="#A0A1CD"/><stop offset=".799" stop-color="#6B6DB2"/><stop offset="1" stop-color="#2E3192"/></radialGradient><radialGradient id="paint7_radial_56_182" cx="0" cy="0" r="1" gradientUnits="userSpaceOnUse" gradientTransform="matrix(-.13762 0 0 -.13093 15.765 3.62)"><stop stop-color="#fff"/><stop offset=".994" stop-color="#fff"/></radialGradient><radialGradient id="paint8_radial_56_182" cx="0" cy="0" r="1" gradientUnits="userSpaceOnUse" gradientTransform="matrix(-.23707 0 0 -.22545 15.767 3.632)"><stop stop-color="#fff"/><stop offset=".103" stop-color="#F9F9FC"/><stop offset=".247" stop-color="#E7E7F2"/><stop offset=".414" stop-color="#C9CAE3"/><stop offset=".599" stop-color="#A0A1CD"/><stop offset=".799" stop-color="#6B6DB2"/><stop offset="1" stop-color="#2E3192"/></radialGradient><radialGradient id="paint9_radial_56_182" cx="0" cy="0" r="1" gradientUnits="userSpaceOnUse" gradientTransform="matrix(-.1245 0 0 -.11815 15.767 3.632)"><stop stop-color="#fff"/><stop offset=".103" stop-color="#F9F9FC"/><stop offset=".247" stop-color="#E7E7F2"/><stop offset=".414" stop-color="#C9CAE3"/><stop offset=".599" stop-color="#A0A1CD"/><stop offset=".799" stop-color="#6B6DB2"/><stop offset="1" stop-color="#2E3192"/></radialGradient><radialGradient id="paint10_radial_56_182" cx="0" cy="0" r="1" gradientUnits="userSpaceOnUse" gradientTransform="matrix(-.13754 0 0 -.13085 19.47 8.75)"><stop stop-color="#fff"/><stop offset=".994" stop-color="#fff"/></radialGradient><radialGradient id="paint11_radial_56_182" cx="0" cy="0" r="1" gradientUnits="userSpaceOnUse" gradientTransform="matrix(-.23702 0 0 -.2254 19.47 8.762)"><stop stop-color="#fff"/><stop offset=".103" stop-color="#F9F9FC"/><stop offset=".247" stop-color="#E7E7F2"/><stop offset=".414" stop-color="#C9CAE3"/><stop offset=".599" stop-color="#A0A1CD"/><stop offset=".799" stop-color="#6B6DB2"/><stop offset="1" stop-color="#2E3192"/></radialGradient><radialGradient id="paint12_radial_56_182" cx="0" cy="0" r="1" gradientUnits="userSpaceOnUse" gradientTransform="matrix(-.1244 0 0 -.11806 19.471 8.762)"><stop stop-color="#fff"/><stop offset=".103" stop-color="#F9F9FC"/><stop offset=".247" stop-color="#E7E7F2"/><stop offset=".414" stop-color="#C9CAE3"/><stop offset=".599" stop-color="#A0A1CD"/><stop offset=".799" stop-color="#6B6DB2"/><stop offset="1" stop-color="#2E3192"/></radialGradient><radialGradient id="paint13_radial_56_182" cx="0" cy="0" r="1" gradientUnits="userSpaceOnUse" gradientTransform="matrix(-.13749 0 0 -.1308 25.184 3.366)"><stop stop-color="#fff"/><stop offset=".994" stop-color="#fff"/></radialGradient><radialGradient id="paint14_radial_56_182" cx="0" cy="0" r="1" gradientUnits="userSpaceOnUse" gradientTransform="matrix(-.23707 0 0 -.22545 25.186 3.378)"><stop stop-color="#fff"/><stop offset=".103" stop-color="#F9F9FC"/><stop offset=".247" stop-color="#E7E7F2"/><stop offset=".414" stop-color="#C9CAE3"/><stop offset=".599" stop-color="#A0A1CD"/><stop offset=".799" stop-color="#6B6DB2"/><stop offset="1" stop-color="#2E3192"/></radialGradient><radialGradient id="paint15_radial_56_182" cx="0" cy="0" r="1" gradientUnits="userSpaceOnUse" gradientTransform="matrix(-.1245 0 0 -.11815 25.186 3.378)"><stop stop-color="#fff"/><stop offset=".103" stop-color="#F9F9FC"/><stop offset=".247" stop-color="#E7E7F2"/><stop offset=".414" stop-color="#C9CAE3"/><stop offset=".599" stop-color="#A0A1CD"/><stop offset=".799" stop-color="#6B6DB2"/><stop offset="1" stop-color="#2E3192"/></radialGradient><radialGradient id="paint16_radial_56_182" cx="0" cy="0" r="1" gradientUnits="userSpaceOnUse" gradientTransform="matrix(-.13759 0 0 -.1309 15.528 13.003)"><stop stop-color="#fff"/><stop offset=".994" stop-color="#fff"/></radialGradient><radialGradient id="paint17_radial_56_182" cx="0" cy="0" r="1" gradientUnits="userSpaceOnUse" gradientTransform="matrix(-.23698 0 0 -.22535 15.53 13.014)"><stop stop-color="#fff"/><stop offset=".103" stop-color="#F9F9FC"/><stop offset=".247" stop-color="#E7E7F2"/><stop offset=".414" stop-color="#C9CAE3"/><stop offset=".599" stop-color="#A0A1CD"/><stop offset=".799" stop-color="#6B6DB2"/><stop offset="1" stop-color="#2E3192"/></radialGradient><radialGradient id="paint18_radial_56_182" cx="0" cy="0" r="1" gradientUnits="userSpaceOnUse" gradientTransform="matrix(-.1244 0 0 -.11806 15.53 13.015)"><stop stop-color="#fff"/><stop offset=".103" stop-color="#F9F9FC"/><stop offset=".247" stop-color="#E7E7F2"/><stop offset=".414" stop-color="#C9CAE3"/><stop offset=".599" stop-color="#A0A1CD"/><stop offset=".799" stop-color="#6B6DB2"/><stop offset="1" stop-color="#2E3192"/></radialGradient><radialGradient id="paint19_radial_56_182" cx="0" cy="0" r="1" gradientUnits="userSpaceOnUse" gradientTransform="matrix(-.1374 0 0 -.13071 25.421 18.139)"><stop stop-color="#fff"/><stop offset=".994" stop-color="#fff"/></radialGradient><radialGradient id="paint20_radial_56_182" cx="0" cy="0" r="1" gradientUnits="userSpaceOnUse" gradientTransform="matrix(-.23698 0 0 -.22535 25.423 18.15)"><stop stop-color="#fff"/><stop offset=".103" stop-color="#F9F9FC"/><stop offset=".247" stop-color="#E7E7F2"/><stop offset=".414" stop-color="#C9CAE3"/><stop offset=".599" stop-color="#A0A1CD"/><stop offset=".799" stop-color="#6B6DB2"/><stop offset="1" stop-color="#2E3192"/></radialGradient><radialGradient id="paint21_radial_56_182" cx="0" cy="0" r="1" gradientUnits="userSpaceOnUse" gradientTransform="matrix(-.12453 0 0 -.11818 25.423 18.15)"><stop stop-color="#fff"/><stop offset=".103" stop-color="#F9F9FC"/><stop offset=".247" stop-color="#E7E7F2"/><stop offset=".414" stop-color="#C9CAE3"/><stop offset=".599" stop-color="#A0A1CD"/><stop offset=".799" stop-color="#6B6DB2"/><stop offset="1" stop-color="#2E3192"/></radialGradient><radialGradient id="paint22_radial_56_182" cx="0" cy="0" r="1" gradientUnits="userSpaceOnUse" gradientTransform="matrix(-.13762 0 0 -.13093 44.702 20.26)"><stop stop-color="#fff"/><stop offset=".994" stop-color="#fff"/></radialGradient><radialGradient id="paint23_radial_56_182" cx="0" cy="0" r="1" gradientUnits="userSpaceOnUse" gradientTransform="matrix(-.23699 0 0 -.22537 44.704 20.271)"><stop stop-color="#fff"/><stop offset=".103" stop-color="#F9F9FC"/><stop offset=".247" stop-color="#E7E7F2"/><stop offset=".414" stop-color="#C9CAE3"/><stop offset=".599" stop-color="#A0A1CD"/><stop offset=".799" stop-color="#6B6DB2"/><stop offset="1" stop-color="#2E3192"/></radialGradient><radialGradient id="paint24_radial_56_182" cx="0" cy="0" r="1" gradientUnits="userSpaceOnUse" gradientTransform="matrix(-.12444 0 0 -.1181 44.704 20.271)"><stop stop-color="#fff"/><stop offset=".103" stop-color="#F9F9FC"/><stop offset=".247" stop-color="#E7E7F2"/><stop offset=".414" stop-color="#C9CAE3"/><stop offset=".599" stop-color="#A0A1CD"/><stop offset=".799" stop-color="#6B6DB2"/><stop offset="1" stop-color="#2E3192"/></radialGradient><radialGradient id="paint25_radial_56_182" cx="0" cy="0" r="1" gradientUnits="userSpaceOnUse" gradientTransform="matrix(-.13762 0 0 -.13093 46.237 14.688)"><stop stop-color="#fff"/><stop offset=".994" stop-color="#fff"/></radialGradient><radialGradient id="paint26_radial_56_182" cx="0" cy="0" r="1" gradientUnits="userSpaceOnUse" gradientTransform="matrix(-.23707 0 0 -.22545 46.238 14.7)"><stop stop-color="#fff"/><stop offset=".103" stop-color="#F9F9FC"/><stop offset=".247" stop-color="#E7E7F2"/><stop offset=".414" stop-color="#C9CAE3"/><stop offset=".599" stop-color="#A0A1CD"/><stop offset=".799" stop-color="#6B6DB2"/><stop offset="1" stop-color="#2E3192"/></radialGradient><radialGradient id="paint27_radial_56_182" cx="0" cy="0" r="1" gradientUnits="userSpaceOnUse" gradientTransform="matrix(-.12448 0 0 -.11814 46.239 14.7)"><stop stop-color="#fff"/><stop offset=".103" stop-color="#F9F9FC"/><stop offset=".247" stop-color="#E7E7F2"/><stop offset=".414" stop-color="#C9CAE3"/><stop offset=".599" stop-color="#A0A1CD"/><stop offset=".799" stop-color="#6B6DB2"/><stop offset="1" stop-color="#2E3192"/></radialGradient><radialGradient id="paint28_radial_56_182" cx="0" cy="0" r="1" gradientUnits="userSpaceOnUse" gradientTransform="matrix(-.13758 0 0 -.1309 41.16 3.956)"><stop stop-color="#fff"/><stop offset=".994" stop-color="#fff"/></radialGradient><radialGradient id="paint29_radial_56_182" cx="0" cy="0" r="1" gradientUnits="userSpaceOnUse" gradientTransform="matrix(-.23699 0 0 -.22537 41.162 3.967)"><stop stop-color="#fff"/><stop offset=".103" stop-color="#F9F9FC"/><stop offset=".247" stop-color="#E7E7F2"/><stop offset=".414" stop-color="#C9CAE3"/><stop offset=".599" stop-color="#A0A1CD"/><stop offset=".799" stop-color="#6B6DB2"/><stop offset="1" stop-color="#2E3192"/></radialGradient><radialGradient id="paint30_radial_56_182" cx="0" cy="0" r="1" gradientUnits="userSpaceOnUse" gradientTransform="matrix(-.1244 0 0 -.11806 41.162 3.967)"><stop stop-color="#fff"/><stop offset=".103" stop-color="#F9F9FC"/><stop offset=".247" stop-color="#E7E7F2"/><stop offset=".414" stop-color="#C9CAE3"/><stop offset=".599" stop-color="#A0A1CD"/><stop offset=".799" stop-color="#6B6DB2"/><stop offset="1" stop-color="#2E3192"/></radialGradient><radialGradient id="paint31_radial_56_182" cx="0" cy="0" r="1" gradientUnits="userSpaceOnUse" gradientTransform="matrix(-.13754 0 0 -.13053 1.114 3.505)"><stop stop-color="#fff"/><stop offset=".994" stop-color="#fff"/></radialGradient><radialGradient id="paint32_radial_56_182" cx="0" cy="0" r="1" gradientUnits="userSpaceOnUse" gradientTransform="matrix(-.23702 0 0 -.2254 1.116 3.517)"><stop stop-color="#fff"/><stop offset=".103" stop-color="#F9F9FC"/><stop offset=".247" stop-color="#E7E7F2"/><stop offset=".414" stop-color="#C9CAE3"/><stop offset=".599" stop-color="#A0A1CD"/><stop offset=".799" stop-color="#6B6DB2"/><stop offset="1" stop-color="#2E3192"/></radialGradient><radialGradient id="paint33_radial_56_182" cx="0" cy="0" r="1" gradientUnits="userSpaceOnUse" gradientTransform="matrix(-.1244 0 0 -.11806 1.116 3.517)"><stop stop-color="#fff"/><stop offset=".103" stop-color="#F9F9FC"/><stop offset=".247" stop-color="#E7E7F2"/><stop offset=".414" stop-color="#C9CAE3"/><stop offset=".599" stop-color="#A0A1CD"/><stop offset=".799" stop-color="#6B6DB2"/><stop offset="1" stop-color="#2E3192"/></radialGradient><radialGradient id="paint34_radial_56_182" cx="0" cy="0" r="1" gradientUnits="userSpaceOnUse" gradientTransform="matrix(-.13744 0 0 -.13076 8.438 6.485)"><stop stop-color="#fff"/><stop offset=".994" stop-color="#fff"/></radialGradient><radialGradient id="paint35_radial_56_182" cx="0" cy="0" r="1" gradientUnits="userSpaceOnUse" gradientTransform="matrix(-.23712 0 0 -.22549 8.44 6.496)"><stop stop-color="#fff"/><stop offset=".103" stop-color="#F9F9FC"/><stop offset=".247" stop-color="#E7E7F2"/><stop offset=".414" stop-color="#C9CAE3"/><stop offset=".599" stop-color="#A0A1CD"/><stop offset=".799" stop-color="#6B6DB2"/><stop offset="1" stop-color="#2E3192"/></radialGradient><radialGradient id="paint36_radial_56_182" cx="0" cy="0" r="1" gradientUnits="userSpaceOnUse" gradientTransform="matrix(-.1244 0 0 -.11806 8.44 6.497)"><stop stop-color="#fff"/><stop offset=".103" stop-color="#F9F9FC"/><stop offset=".247" stop-color="#E7E7F2"/><stop offset=".414" stop-color="#C9CAE3"/><stop offset=".599" stop-color="#A0A1CD"/><stop offset=".799" stop-color="#6B6DB2"/><stop offset="1" stop-color="#2E3192"/></radialGradient><radialGradient id="paint37_radial_56_182" cx="0" cy="0" r="1" gradientUnits="userSpaceOnUse" gradientTransform="matrix(-.13762 0 0 -.13093 29.527 12.142)"><stop stop-color="#fff"/><stop offset=".994" stop-color="#fff"/></radialGradient><radialGradient id="paint38_radial_56_182" cx="0" cy="0" r="1" gradientUnits="userSpaceOnUse" gradientTransform="matrix(-.23703 0 0 -.22541 29.528 12.153)"><stop stop-color="#fff"/><stop offset=".103" stop-color="#F9F9FC"/><stop offset=".247" stop-color="#E7E7F2"/><stop offset=".414" stop-color="#C9CAE3"/><stop offset=".599" stop-color="#A0A1CD"/><stop offset=".799" stop-color="#6B6DB2"/><stop offset="1" stop-color="#2E3192"/></radialGradient><radialGradient id="paint39_radial_56_182" cx="0" cy="0" r="1" gradientUnits="userSpaceOnUse" gradientTransform="matrix(-.12448 0 0 -.11814 29.529 12.152)"><stop stop-color="#fff"/><stop offset=".103" stop-color="#F9F9FC"/><stop offset=".247" stop-color="#E7E7F2"/><stop offset=".414" stop-color="#C9CAE3"/><stop offset=".599" stop-color="#A0A1CD"/><stop offset=".799" stop-color="#6B6DB2"/><stop offset="1" stop-color="#2E3192"/></radialGradient><linearGradient id="paint0_linear_56_182" x1="22.618" y1="-4.454" x2="22.618" y2="36.449" gradientUnits="userSpaceOnUse"><stop stop-color="#1A0D23"/><stop offset=".247" stop-color="#1A0D23"/><stop offset=".34" stop-color="#18162E"/><stop offset=".501" stop-color="#142E4A"/><stop offset=".711" stop-color="#0C5678"/><stop offset=".96" stop-color="#028CB7"/><stop offset="1" stop-color="#0095C2"/></linearGradient></defs></svg>