<svg width="25" height="21" fill="none" xmlns="http://www.w3.org/2000/svg"><path opacity=".3" d="M0 2.44C0 1.731.282 1.148.845.69 1.408.23 2.14 0 3.04 0c.884 0 1.6.226 2.147.679.563.466.845 1.075.845 1.824 0 .679-.274 1.244-.82 1.697-.564.467-1.304.7-2.22.7h-.025c-.885 0-1.6-.233-2.148-.7C.273 3.733 0 3.146 0 2.44ZM.314 21V6.83H5.67V21H.314Zm8.325 0h5.357v-7.912c0-.495.064-.877.193-1.146.225-.48.567-.887 1.026-1.22.458-.332 1.033-.498 1.725-.498 1.802 0 2.703 1.068 2.703 3.203V21H25v-8.124c0-2.093-.563-3.68-1.69-4.762-1.125-1.082-2.613-1.623-4.463-1.623-2.076 0-3.693.785-4.85 2.354v.043h-.025l.024-.043V6.83H8.64c.032.453.048 1.86.048 4.222 0 2.361-.016 5.677-.048 9.948Z" fill="#fff"/></svg>