<svg width="14" height="17" fill="none" xmlns="http://www.w3.org/2000/svg"><path opacity=".3" d="M0 1.975C0 1.402.148.93.443.558.74.186 1.123 0 1.596 0c.465 0 .84.183 1.128.55.295.377.443.87.443 1.476 0 .55-.143 1.008-.43 1.374a1.409 1.409 0 0 1-1.166.567h-.013A1.35 1.35 0 0 1 .431 3.4C.144 3.022 0 2.547 0 1.975ZM.165 17V5.53h2.812V17H.165Zm4.37 0h2.813v-6.405c0-.4.034-.71.101-.927.119-.39.298-.719.539-.988.24-.269.542-.403.906-.403.946 0 1.418.864 1.418 2.593V17h2.813v-6.577c0-1.694-.296-2.98-.887-3.855-.591-.876-1.372-1.313-2.344-1.313-1.09 0-1.938.635-2.546 1.906v.034h-.013l.013-.034V5.529H4.535c.017.367.026 1.506.026 3.417 0 1.912-.009 4.597-.026 8.054Z" fill="#fff"/></svg>